<?xml version="1.0" standalone="no"?>
<!DOCTYPE svg PUBLIC "-//W3C//DTD SVG 20010904//EN"
 "http://www.w3.org/TR/2001/REC-SVG-20010904/DTD/svg10.dtd">
<svg version="1.0" xmlns="http://www.w3.org/2000/svg"
 width="1093.000000pt" height="1280.000000pt" viewBox="0 0 1093.000000 1280.000000"
 preserveAspectRatio="xMidYMid meet">
<metadata>
Created by potrace 1.15, written by Peter Selinger 2001-2017
</metadata>
<g transform="translate(0.000000,1280.000000) scale(0.100000,-0.100000)"
fill="#440A0A" stroke="none">
<path d="M4890 12794 c-360 -34 -620 -93 -915 -211 -414 -164 -764 -395 -1180
-778 -836 -771 -1380 -1161 -1827 -1310 -138 -45 -221 -59 -337 -53 -118 7
-179 28 -300 108 -120 78 -144 90 -186 90 -91 0 -150 -59 -141 -143 18 -168
308 -368 614 -422 312 -56 714 30 1138 243 318 160 586 345 1171 809 504 400
671 523 899 661 434 262 766 355 1184 330 479 -29 953 -220 1379 -556 53 -41
173 -152 266 -245 l170 -170 -130 -19 c-856 -123 -1642 -695 -2188 -1592 -381
-625 -618 -1372 -699 -2196 -20 -211 -18 -843 5 -1050 35 -322 73 -562 143
-905 41 -199 157 -675 169 -695 3 -4 -11 -40 -30 -79 -212 -428 -125 -951 214
-1290 85 -85 199 -165 301 -213 l68 -32 32 -80 c128 -313 397 -875 558 -1161
49 -88 89 -161 87 -163 -2 -2 -52 6 -111 17 -599 112 -1124 108 -1604 -14
-176 -45 -387 -131 -467 -192 -41 -30 -44 -68 -8 -85 22 -10 38 -5 133 44 120
62 300 124 472 162 350 77 787 86 1225 25 147 -20 384 -65 421 -79 16 -6 114
-146 114 -163 0 -1 -78 -2 -173 -3 -248 -1 -427 -27 -681 -100 -364 -105 -765
-316 -1073 -566 -34 -28 -64 -57 -68 -66 -8 -22 22 -62 46 -62 12 0 60 31 108
68 407 322 890 537 1366 607 135 20 375 29 474 18 l75 -8 43 -63 c24 -35 43
-65 43 -68 0 -2 -20 -4 -44 -4 -124 0 -315 -44 -442 -100 -298 -134 -548 -438
-674 -819 -54 -163 -56 -175 -31 -200 44 -44 70 -19 101 94 160 575 570 925
1084 925 l83 0 74 -97 c399 -525 790 -824 1128 -862 287 -32 586 114 917 447
125 126 272 297 369 429 l60 82 50 0 c71 1 229 -24 303 -49 219 -72 398 -205
541 -400 76 -103 180 -312 216 -435 39 -132 45 -145 71 -151 53 -13 68 28 42
121 -68 251 -210 506 -373 670 -197 199 -426 308 -717 340 l-57 6 45 69 c52
78 57 80 198 80 587 0 1251 -245 1750 -645 38 -30 79 -55 91 -55 28 0 45 18
45 50 0 30 -77 95 -260 219 -487 329 -994 502 -1554 529 l-146 7 44 73 c24 41
50 80 57 87 8 8 77 25 154 39 647 117 1219 100 1700 -50 97 -30 233 -88 298
-126 55 -32 79 -35 102 -12 41 42 -6 84 -175 159 -472 210 -1148 260 -1880
139 -52 -8 -104 -18 -115 -21 -16 -5 -18 -3 -9 8 23 28 190 340 304 568 163
325 266 553 410 906 77 187 79 191 149 263 73 75 150 181 193 267 95 188 138
439 108 633 -11 66 -10 72 45 262 318 1116 426 2016 340 2830 -121 1133 -558
2130 -1240 2829 -300 307 -615 530 -980 693 l-80 35 -12 65 c-39 233 -255 548
-568 831 -648 586 -1525 934 -2335 925 -80 -1 -161 -3 -180 -4z"/>
</g>
</svg>
