<?xml version="1.0" standalone="no"?>
<!DOCTYPE svg PUBLIC "-//W3C//DTD SVG 20010904//EN"
 "http://www.w3.org/TR/2001/REC-SVG-20010904/DTD/svg10.dtd">
<svg version="1.0" xmlns="http://www.w3.org/2000/svg"
 width="1280.000000pt" height="1218.000000pt" viewBox="0 0 1280.000000 1218.000000"
 preserveAspectRatio="xMidYMid meet">
<metadata>
Created by potrace 1.15, written by Peter Selinger 2001-2017
</metadata>
<g transform="translate(0.000000,1218.000000) scale(0.100000,-0.100000)"
fill="#AA2222" stroke="none">
<path d="M3070 12169 c-70 -28 -104 -89 -104 -189 0 -125 62 -283 171 -437 68
-97 243 -269 347 -341 227 -157 550 -264 960 -318 161 -21 540 -29 736 -15
416 28 679 70 1624 261 431 86 807 151 1020 175 527 60 962 30 1321 -91 311
-104 663 -329 952 -608 93 -89 263 -276 263 -289 0 -2 -38 16 -85 40 -47 24
-150 73 -228 107 -1395 620 -2999 521 -4295 -263 -401 -243 -699 -493 -1095
-919 l-59 -62 -66 49 c-445 327 -995 483 -1523 431 -569 -57 -1083 -330 -1450
-769 -231 -277 -423 -670 -498 -1021 -188 -886 169 -1726 944 -2217 92 -58
290 -159 383 -194 47 -18 61 -28 56 -39 -17 -42 -91 -265 -139 -420 -105 -344
-188 -681 -240 -980 -14 -85 -29 -169 -33 -187 l-7 -32 -105 45 c-220 95 -490
176 -712 214 -404 68 -838 30 -1115 -100 -92 -43 -109 -69 -79 -115 22 -34 57
-32 142 6 38 17 121 45 184 61 381 96 800 69 1266 -83 123 -40 380 -143 397
-158 4 -4 2 -69 -5 -144 -11 -131 -13 -137 -33 -130 -35 11 -366 7 -465 -6
-382 -51 -795 -204 -1145 -425 -191 -120 -219 -153 -168 -204 32 -32 46 -27
173 57 486 321 1040 489 1513 456 l108 -7 -3 -135 -3 -135 -75 -22 c-309 -92
-592 -349 -825 -751 -79 -135 -155 -303 -155 -341 0 -49 49 -80 88 -56 7 5 50
85 96 178 196 396 428 663 690 792 78 38 185 76 193 68 2 -2 11 -55 19 -117
49 -373 178 -688 366 -896 390 -431 1130 -700 2198 -797 256 -24 678 -39 956
-34 l253 4 8 -56 c4 -30 8 -143 8 -250 0 -219 -14 -327 -71 -549 -41 -160 -42
-176 -9 -197 37 -24 73 -11 91 33 23 53 71 245 88 348 38 227 45 491 17 633
-5 23 -6 42 -2 42 23 1 451 31 512 36 l76 7 45 -79 c115 -201 224 -450 282
-652 36 -124 53 -152 91 -152 25 0 65 34 65 56 0 29 -73 259 -119 377 -49 122
-154 342 -199 417 -12 19 -22 38 -22 41 0 4 51 12 113 19 203 21 699 92 748
106 18 5 87 -92 144 -205 40 -80 68 -102 110 -83 53 25 41 87 -48 232 -25 41
-43 78 -39 81 4 4 39 12 77 18 293 49 859 188 1234 303 1100 336 1816 725
2425 1318 776 756 1251 1744 1372 2855 22 198 25 711 6 885 -61 558 -187 1034
-389 1473 l-56 122 -7 180 c-4 99 -11 200 -14 225 -143 904 -692 1861 -1446
2524 -650 571 -1409 896 -2257 967 -184 15 -642 7 -823 -15 -321 -39 -529 -84
-990 -213 -1111 -310 -1845 -436 -2439 -420 -240 6 -393 29 -544 82 -230 79
-343 181 -467 422 -23 46 -59 100 -80 121 -55 55 -137 76 -200 51z"/>
</g>
</svg>
